<?xml version="1.0" standalone="no"?><!DOCTYPE svg PUBLIC "-//W3C//DTD SVG 1.1//EN" "http://www.w3.org/Graphics/SVG/1.1/DTD/svg11.dtd"><svg t="1623584393247" class="icon" viewBox="0 0 1024 1024" version="1.1" xmlns="http://www.w3.org/2000/svg" p-id="8025" xmlns:xlink="http://www.w3.org/1999/xlink" width="200" height="200"><defs><style type="text/css"></style></defs><path d="M915.456 907.264c-30.72 0-57.344-18.432-69.632-47.104-26.624-73.728-83.968-133.12-155.648-167.936v71.68c0 18.432-6.144 34.816-18.432 47.104-14.336 16.384-34.816 26.624-55.296 26.624-18.432 0-34.816-6.144-47.104-18.432L229.376 530.432c-4.096-2.048-6.144-6.144-8.192-8.192-26.624-30.72-22.528-77.824 10.24-102.4l339.968-286.72c28.672-24.576 73.728-20.48 98.304 4.096 14.336 14.336 20.48 32.768 20.48 51.2v90.112c186.368 57.344 319.488 235.52 319.488 430.08 0 51.2-8.192 102.4-26.624 151.552-8.192 20.48-22.528 36.864-43.008 43.008-8.192 4.096-16.384 4.096-24.576 4.096zM661.504 616.448c4.096 0 6.144 0 10.24 2.048 108.544 34.816 196.608 116.736 233.472 221.184 2.048 8.192 10.24 8.192 14.336 6.144 4.096-2.048 6.144-4.096 6.144-6.144 14.336-40.96 22.528-86.016 22.528-129.024 0-174.08-122.88-331.776-294.912-376.832-14.336-2.048-24.576-14.336-24.576-30.72V188.416c0-10.24-12.288-14.336-20.48-8.192L270.336 464.896c-4.096 4.096-6.144 12.288-2.048 16.384l2.048 2.048 339.968 290.816c2.048 2.048 6.144 2.048 8.192 2.048 2.048 0 6.144 0 8.192-4.096 2.048-2.048 2.048-4.096 2.048-8.192v-116.736c0-10.24 4.096-18.432 12.288-24.576 8.192-4.096 14.336-6.144 20.48-6.144z" fill="#333333" p-id="8026"></path><path d="M313.344 761.856c-8.192 0-14.336-2.048-20.48-8.192l-256-225.28-6.144-6.144c-26.624-30.72-22.528-77.824 6.144-104.448L296.96 194.56c12.288-10.24 30.72-8.192 43.008 6.144 10.24 12.288 8.192 32.768-4.096 43.008L77.824 464.896c-4.096 2.048-4.096 6.144-4.096 8.192 0 2.048 0 6.144 2.048 8.192l256 227.328c12.288 10.24 14.336 30.72 2.048 43.008-4.096 8.192-12.288 10.24-20.48 10.24z" fill="#333333" p-id="8027"></path></svg>